<?xml version="1.0" encoding="utf-8"?>
<!-- Generator: Adobe Illustrator 26.4.1, SVG Export Plug-In . SVG Version: 6.00 Build 0)  -->
<svg version="1.1" id="Layer_1" xmlns="http://www.w3.org/2000/svg" xmlns:xlink="http://www.w3.org/1999/xlink" x="0px" y="0px"
	 width="64px" height="64px" viewBox="0 0 64 64" style="enable-background:new 0 0 64 64;" xml:space="preserve">
<style type="text/css">
	.st0{fill:#586BCE;}
</style>
<g>
	<g id="Artboard_3">
		<g id="Group_2340" transform="translate(9 7.309)">
			<path id="Path_1597" d="M44.3,6.4H14V4c0-0.1,0-0.2-0.1-0.3l-0.8-1.6c-0.1-0.3-0.4-0.4-0.7-0.4h-1.6c-0.3,0-0.6,0.2-0.7,0.4
				L9.4,3.7C9.4,3.8,9.3,3.9,9.3,4v2.6L7,7.8L4.7,6.7V4c0-0.1,0-0.2-0.1-0.3L3.8,2.1C3.7,1.9,3.4,1.7,3.1,1.7H1.6
				C1.3,1.7,1,1.9,0.9,2.1L0.1,3.7C0,3.8,0,3.9,0,4v6.2c0,0.2,0.1,0.4,0.2,0.5l2.9,2.9v22.7l-2.9,2.9C0.1,39.4,0,39.6,0,39.8V46
				c0,0.1,0,0.2,0.1,0.3l0.8,1.6c0.1,0.3,0.4,0.4,0.7,0.4h1.6c0.3,0,0.6-0.2,0.7-0.4l0.8-1.6c0.1-0.1,0.1-0.2,0.1-0.3v-2.6L7,42.2
				l2.3,1.2V46c0,0.1,0,0.2,0.1,0.3l0.8,1.6c0.1,0.3,0.4,0.4,0.7,0.4h1.6c0.3,0,0.6-0.2,0.7-0.4l0.8-1.6C14,46.3,14,46.1,14,46v-2.3
				h30.3c1.3,0,2.3-1,2.3-2.3c0,0,0,0,0,0V8.7C46.7,7.4,45.6,6.4,44.3,6.4C44.3,6.4,44.3,6.4,44.3,6.4L44.3,6.4z M13.8,10.8
				c0.1-0.1,0.2-0.3,0.2-0.5V7.9h30.3c0.4,0,0.8,0.3,0.8,0.8c0,0,0,0,0,0v3.9H12L13.8,10.8z M12.4,45.8l-0.5,1h-0.6l-0.5-1v-2.9
				c0-0.3-0.2-0.6-0.4-0.7l-3.1-1.6c-0.2-0.1-0.5-0.1-0.7,0l-3.1,1.6c-0.3,0.1-0.4,0.4-0.4,0.7v2.9l-0.5,1H2l-0.5-1v-5.7l2.9-2.9
				l0,0c0.1-0.1,0.2-0.3,0.2-0.5V13.4c0-0.2-0.1-0.4-0.2-0.5L1.6,9.9V4.2l0.5-1h0.6l0.5,1v2.9c0,0.3,0.2,0.6,0.4,0.7l3.1,1.6
				c0.2,0.1,0.5,0.1,0.7,0l3.1-1.6c0.3-0.1,0.4-0.4,0.4-0.7V4.2l0.5-1H12l0.5,1v5.7l-2.9,2.9l0,0c-0.1,0.1-0.2,0.3-0.2,0.5v23.3
				c0,0.2,0.1,0.4,0.2,0.5l2.9,2.9L12.4,45.8z M44.3,42.1H14v-2.3c0-0.2-0.1-0.4-0.2-0.5l-2.9-2.9V14.1h34.2v27.2
				C45.1,41.8,44.8,42.1,44.3,42.1C44.3,42.1,44.3,42.1,44.3,42.1L44.3,42.1z"/>
			<path id="Path_1598" d="M34.2,9.5h1.6V11h-1.6V9.5z"/>
			<path id="Path_1599" d="M37.3,9.5h1.6V11h-1.6V9.5z"/>
			<path id="Path_1600" d="M40.4,9.5H42V11h-1.6V9.5z"/>
			<g id="Group_2285" transform="translate(14.774 16.466)">
				<path id="Path_1601" class="st0" d="M15.1,6.7l-4.9,4.9L9,10.5c-0.9-0.9-2.4-0.9-3.3,0c-0.9,0.9-0.9,2.4,0,3.3l2.8,2.8l0,0
					c0.9,0.9,2.4,0.9,3.3,0c0,0,0,0,0,0l6.6-6.6c0.9-0.9,0.9-2.4,0-3.3C17.4,5.7,16,5.7,15.1,6.7L15.1,6.7L15.1,6.7z M17.3,8.9
					l-6.6,6.6c-0.3,0.3-0.8,0.3-1.1,0l-2.8-2.8l0,0c-0.3-0.3-0.3-0.8,0-1.1c0.3-0.3,0.8-0.3,1.1,0l1.6,1.6c0.3,0.3,0.8,0.3,1.1,0
					l5.5-5.5c0.3-0.3,0.8-0.3,1.1,0C17.5,8.1,17.5,8.6,17.3,8.9L17.3,8.9z"/>
				<path id="Path_1602" class="st0" d="M11.7,0C5.2,0,0,5.2,0,11.7s5.2,11.7,11.7,11.7s11.7-5.2,11.7-11.7c0-3.1-1.2-6.1-3.4-8.3
					C17.7,1.2,14.8,0,11.7,0z M11.7,21.8c-5.6,0-10.1-4.5-10.1-10.1c0-5.6,4.5-10.1,10.1-10.1c5.6,0,10.1,4.5,10.1,10.1
					c0,2.7-1.1,5.3-3,7.2C16.9,20.7,14.3,21.8,11.7,21.8z"/>
			</g>
		</g>
	</g>
</g>
</svg>
